<?xml version="1.0" encoding="UTF-8"?>
<svg xmlns="http://www.w3.org/2000/svg" xmlns:xlink="http://www.w3.org/1999/xlink" width="32px" height="32px" viewBox="0 0 32 32" version="1.1">
<g id="surface1">
<path style=" stroke:none;fill-rule:nonzero;fill:rgb(11.372549%,63.137255%,94.901961%);fill-opacity:1;" d="M 10.050781 6.03125 C 10.925781 7.09375 11.988281 7.960938 13.144531 8.667969 C 14.761719 9.65625 16.5 10.289062 18 10.644531 L 18 8.675781 C 16.613281 6.78125 15.625 4.46875 15.539062 1.75 C 15.511719 1.042969 15.070312 0.40625 14.386719 0.226562 C 13.914062 0.101562 13.398438 0.210938 13.074219 0.585938 C 12.242188 1.550781 11.03125 3.375 10.050781 6.039062 Z M 20 9 L 20 13 C 16.199219 12.679688 8.4375 10.261719 6.292969 3.175781 C 6.085938 2.5 5.492188 2 4.789062 2 C 4.292969 2 3.832031 2.242188 3.613281 2.6875 C 2.925781 4.117188 2 7.007812 2 11 C 2 18.304688 7.007812 22.28125 9.398438 23.675781 L 0.738281 26.039062 C 0.417969 26.125 0.164062 26.363281 0.0546875 26.675781 C -0.0507812 26.988281 0.0078125 27.335938 0.199219 27.601562 C 1.355469 29.136719 4.832031 32 10 32 C 10.226562 32 10.449219 31.925781 10.625 31.78125 L 15.351562 28 L 20 28 C 25.523438 28 30 23.523438 30 18 L 30 8 L 31.867188 5.195312 C 31.949219 5.070312 32 4.917969 32 4.769531 C 32 4.34375 31.65625 4 31.230469 4 L 25 4 C 22.238281 4 20 6.238281 20 9 Z M 25 8 C 25.550781 8 26 8.449219 26 9 C 26 9.550781 25.550781 10 25 10 C 24.449219 10 24 9.550781 24 9 C 24 8.449219 24.449219 8 25 8 Z M 25 8 "/>
</g>
</svg>
